<svg width="102" height="98" viewBox="0 0 102 98" fill="none" xmlns="http://www.w3.org/2000/svg">
<path d="M53.0001 78.3703C53.0001 76.8147 48.0001 76.2839 43.8489 77.2522C39.6977 78.2205 36.0001 77.858 36.0001 79.4136C36.0001 80.9692 38.6935 84.0591 43.8489 84.0591C49.0044 84.0591 53.0001 79.9259 53.0001 78.3703Z" stroke="#1A1A1A" stroke-width="2.17391" stroke-linecap="round"/>
<path d="M44.1541 55.9823C44.1951 55.3834 43.743 54.8617 43.1443 54.8172C42.5457 54.7726 42.0272 55.222 41.9862 55.8209L43.0702 55.9016L44.1541 55.9823ZM40.9162 71.469C40.8752 72.0679 41.3273 72.5896 41.926 72.6341C42.5246 72.6787 43.0431 72.2293 43.0841 71.6304L42.0001 71.5497L40.9162 71.469ZM43.0702 55.9016L41.9862 55.8209L40.9162 71.469L42.0001 71.5497L43.0841 71.6304L44.1541 55.9823L43.0702 55.9016Z" fill="#1A1A1A"/>
<path d="M32.9575 20.8296C19.9526 26.3943 14.0001 40.6984 14.0001 57.4664C14.0001 79.0719 23.8825 96.5866 46.0001 96.5866C68.1178 96.5866 78.0001 79.0719 78.0001 57.4664C78.0001 56.413 77.9766 55.3692 77.9294 54.3368" stroke="#1A1A1A" stroke-width="2.17391" stroke-linecap="round"/>
<path d="M27.5001 70.5067C20.5966 70.5067 15.0001 66.9629 15.0001 59.0314C15.0001 51.1 20.5966 47.5562 27.5001 47.5562C34.4037 47.5562 40.0001 51.1 40.0001 59.0314C40.0001 66.9629 34.4037 70.5067 27.5001 70.5067Z" stroke="#1A1A1A" stroke-width="2.17391" stroke-linecap="round"/>
<path d="M74.3309 51.7241C74.8901 51.9312 75.4977 51.6341 75.6882 51.0606C75.8786 50.4871 75.5796 49.8543 75.0204 49.6472L74.6757 50.6857L74.3309 51.7241ZM54.5014 39.4204L54.0273 40.401L54.5014 39.4204ZM68.4123 15.4434L68.8864 14.4628L68.4123 15.4434ZM83.0433 47.2106C82.7793 47.751 82.9936 48.418 83.522 48.7005C84.0504 48.983 84.6928 48.774 84.9569 48.2336L84.0001 47.7221L83.0433 47.2106ZM74.6757 50.6857L75.0204 49.6472C72.5084 48.7169 69.5798 47.0298 66.1943 44.9859C62.8393 42.9604 59.0703 40.6071 54.9755 38.4399L54.5014 39.4204L54.0273 40.401C58.0526 42.5313 61.7486 44.8395 65.1397 46.8868C68.5001 48.9155 71.5986 50.7123 74.3309 51.7241L74.6757 50.6857ZM54.5014 39.4204L54.9755 38.4399C47.9732 34.734 41.8522 30.771 38.0952 26.813C36.2185 24.8359 35.0031 22.9334 34.5117 21.1381C34.0337 19.392 34.2197 17.681 35.2794 15.9563L34.3731 15.3529L33.4669 14.7495C32.0854 16.9979 31.8107 19.3525 32.4539 21.7023C33.0836 24.0029 34.5712 26.2265 36.5807 28.3435C40.5961 32.5738 46.9804 36.6715 54.0273 40.401L54.5014 39.4204ZM68.4123 15.4434L67.9382 16.4239C74.489 19.8909 79.2349 25.6849 81.849 31.6175C84.4842 37.598 84.8625 43.4877 83.0433 47.2106L84.0001 47.7221L84.9569 48.2336C87.1837 43.6766 86.5651 37.0241 83.7935 30.734C81.0007 24.3959 75.9298 18.1905 68.8864 14.4628L68.4123 15.4434ZM34.3731 15.3529L35.2794 15.9563C37.436 12.4462 41.974 10.6497 47.9601 10.7339C53.9063 10.8177 61.032 12.7688 67.9382 16.4239L68.4123 15.4434L68.8864 14.4628C61.7436 10.6825 54.2908 8.61529 47.9502 8.52603C41.6496 8.43734 36.1925 10.3133 33.4669 14.7495L34.3731 15.3529Z" fill="#1A1A1A"/>
<path d="M14.628 49.2166C15.2131 49.1342 15.6303 48.5767 15.5597 47.9713C15.489 47.3658 14.9574 46.9418 14.3723 47.0241L14.5001 48.1203L14.628 49.2166ZM8.04326 45.219L8.95958 44.6376L8.04326 45.219ZM16.9524 20.9044L17.5901 21.7815L16.9524 20.9044ZM33.6943 17.3147C34.2751 17.4094 34.8272 16.9968 34.9273 16.3932C35.0274 15.7896 34.6377 15.2235 34.0568 15.1288L33.8755 16.2218L33.6943 17.3147ZM14.5001 48.1203L14.3723 47.0241C13.1299 47.1989 12.0755 47.0957 11.2011 46.7248C10.3393 46.3593 9.57926 45.7037 8.95958 44.6376L8.04326 45.219L7.12694 45.8005C7.9565 47.2276 9.05036 48.216 10.3675 48.7745C11.6718 49.3277 13.1213 49.4286 14.628 49.2166L14.5001 48.1203ZM16.9524 20.9044L17.5901 21.7815C22.5617 17.8637 28.7957 16.5162 33.6943 17.3147L33.8755 16.2218L34.0568 15.1288C28.591 14.2378 21.7631 15.7339 16.3147 20.0274L16.9524 20.9044ZM8.04326 45.219L8.95958 44.6376C7.38353 41.9263 7.35091 37.9489 8.87604 33.6817C10.3908 29.4433 13.3916 25.09 17.5901 21.7815L16.9524 20.9044L16.3147 20.0274C11.7951 23.5889 8.53785 28.2904 6.87587 32.9406C5.22423 37.5618 5.09609 42.3067 7.12694 45.8005L8.04326 45.219Z" fill="#1A1A1A"/>
<path d="M58.5001 70.5067C51.5966 70.5067 46.0001 66.9629 46.0001 59.0314C46.0001 51.1 51.5966 47.5562 58.5001 47.5562C65.4037 47.5562 71.0001 51.1 71.0001 59.0314C71.0001 66.9629 65.4037 70.5067 58.5001 70.5067Z" stroke="#1A1A1A" stroke-width="2.17391" stroke-linecap="round"/>
<path d="M74.5001 51.0465C76.0335 48.6652 78.5968 47.5562 81.5001 47.5562C86.1945 47.5562 90.0001 50.4557 90.0001 56.945C90.0001 63.4344 86.1945 66.3339 81.5001 66.3339C80.054 66.3339 78.6923 66.0587 77.5001 65.4883" stroke="#1A1A1A" stroke-width="2.17391" stroke-linecap="round"/>
<path d="M11.5001 48.0039C8.28609 49.0421 6.00012 51.9152 6.00012 56.9447C6.00012 63.4341 9.8057 66.3336 14.5001 66.3336" stroke="#1A1A1A" stroke-width="2.17391" stroke-linecap="round"/>
<line x1="41.0871" y1="58.9875" x2="44.9132" y2="58.9875" stroke="#1A1A1A" stroke-width="2.17391" stroke-linecap="round"/>
<ellipse cx="30.5001" cy="58.5096" rx="2.5" ry="2.60802" fill="#1A1A1A"/>
<ellipse cx="57.5001" cy="58.5096" rx="2.5" ry="2.60802" fill="#1A1A1A"/>
<path d="M91.4792 48C91.2882 46.5894 90.7847 45.0703 89.9687 43.4427C89.1528 41.7934 87.9896 40.2635 86.4792 38.8529C84.9861 37.4423 83.4931 36.5417 82 36.151V34.7839C83.4757 34.3498 84.8906 33.5469 86.2448 32.375C87.6163 31.1814 88.7622 29.7491 89.6823 28.0781C90.6198 26.3637 91.2187 24.671 91.4792 23H92.5729C92.7292 24.0851 93.0417 25.2027 93.5104 26.3529C93.9792 27.4813 94.5781 28.5664 95.3073 29.6081C96.0538 30.628 96.8872 31.5503 97.8073 32.375C99.1788 33.5903 100.576 34.3932 102 34.7839V36.151C101.045 36.3898 100.056 36.878 99.0312 37.6159C98.0243 38.3537 97.0868 39.2326 96.2187 40.2526C95.3507 41.2509 94.6389 42.3034 94.0833 43.4102C93.2674 45.0378 92.7639 46.5677 92.5729 48H91.4792Z" fill="#1A1A1A"/>
</svg>
